<?xml version="1.0" encoding="utf-8"?>
<!-- Svg Vector Icons : http://www.onlinewebfonts.com/icon -->
<!DOCTYPE svg PUBLIC "-//W3C//DTD SVG 1.1//EN" "http://www.w3.org/Graphics/SVG/1.1/DTD/svg11.dtd">
<svg version="1.1" xmlns="http://www.w3.org/2000/svg" xmlns:xlink="http://www.w3.org/1999/xlink" x="0px" y="0px" viewBox="0 0 1000 1000" enable-background="new 0 0 1000 1000" xml:space="preserve" fill="white">
<metadata> Svg Vector Icons : http://www.onlinewebfonts.com/icon </metadata>
<g><g><path d="M990,271.1c0,16.9-5.9,31.2-17.7,43L428.6,857.9c-11.8,11.8-26.1,17.7-43,17.7c-16.9,0-31.2-5.9-43-17.7L27.7,543C15.9,531.2,10,516.9,10,500c0-16.9,5.9-31.2,17.7-43l86-86c11.8-11.8,26.1-17.7,43-17.7c16.9,0,31.2,5.9,43,17.7l185.9,186.5l414.8-415.4c11.8-11.8,26.1-17.7,43-17.7s31.2,5.9,43,17.7l86,86C984.1,239.9,990,254.3,990,271.1L990,271.1z"/></g></g>
</svg>