<!-- <?xml version="1.0" encoding="iso-8859-1"?>
Generator: Adobe Illustrator 19.0.0, SVG Export Plug-In . SVG Version: 6.00 Build 0)
<svg version="1.1" id="Capa_1" xmlns="http://www.w3.org/2000/svg" xmlns:xlink="http://www.w3.org/1999/xlink" x="0px" y="0px"
	 viewBox="0 0 480 480" style="enable-background:new 0 0 480 480;" xml:space="preserve" fill="white">
<g>
	<g>
		<path d="M472,144h-24v-12c0-15.464-12.536-28-28-28c-4.16,0.023-8.261,0.983-12,2.808V96c0-17.673-14.327-32-32-32
			c-17.673,0-32,14.327-32,32v48h-32v-8c0.058-13.197-10.593-23.943-23.79-24.002c-5.995-0.027-11.781,2.201-16.21,6.242
			c-9.044-8.32-22.956-8.32-32,0c-9.044-8.32-22.956-8.32-32,0c-9.75-8.894-24.864-8.2-33.758,1.55
			c-4.04,4.429-6.268,10.215-6.242,16.21v8h-32V96c0-17.673-14.327-32-32-32c-17.673,0-32,14.327-32,32v10.808
			c-3.739-1.825-7.84-2.785-12-2.808c-15.464,0-28,12.536-28,28v12H8c-4.418,0-8,3.582-8,8v48c0,4.418,3.582,8,8,8h24v12
			c0,15.464,12.536,28,28,28c4.16-0.023,8.261-0.983,12-2.808V256c0,17.673,14.327,32,32,32c17.673,0,32-14.327,32-32v-48h16v26.744
			c-0.026,10.613,4.194,20.796,11.72,28.28L184,283.312V416h16V280c0-2.122-0.844-4.156-2.344-5.656l-22.624-22.632
			c-4.489-4.508-7.016-10.606-7.032-16.968V184h46.856c3.029-0.041,5.899,1.35,7.744,3.752c0.056,0.08,0.12,0.16,0.176,0.248
			c0.343,0.546,0.612,1.135,0.8,1.752c0.151,0.493,0.253,0.999,0.304,1.512c0.056,0.502,0.056,1.01,0,1.512
			c-0.018,0.269-0.053,0.536-0.104,0.8c-0.181,0.843-0.492,1.652-0.92,2.4c-1.395,2.477-4.013,4.013-6.856,4.024h-24
			c-4.418,0-8,3.582-8,8v16c-0.001,3.445,2.204,6.503,5.472,7.592l17.6,5.88C221.36,242.216,232,263.84,232,280h16
			c0-22.008-13.696-50.336-35.832-57.712L200,218.232V216h16c6.733-0.065,13.125-2.97,17.6-8H304v29.336
			c-0.01,5.191-1.693,10.241-4.8,14.4L281.6,275.2c-1.039,1.385-1.6,3.069-1.6,4.8v136h16V282.664l16-21.328
			c5.178-6.931,7.984-15.348,8-24V208h24v48c0,17.673,14.327,32,32,32c17.673,0,32-14.327,32-32v-10.808
			c3.739,1.825,7.84,2.785,12,2.808c15.464,0,28-12.536,28-28v-12h24c4.418,0,8-3.582,8-8v-48C480,147.582,476.418,144,472,144z
			 M32,192H16v-32h16V192z M72,220c0,6.627-5.373,12-12,12s-12-5.373-12-12v-88c0-6.627,5.373-12,12-12s12,5.373,12,12V220z
			 M120,256c0,8.837-7.163,16-16,16s-16-7.163-16-16V96c0-8.837,7.163-16,16-16s16,7.163,16,16V256z M160,168c-4.418,0-8,3.582-8,8
			v16h-16v-32h32c0.009,1.512,0.161,3.021,0.456,4.504c0.088,0.472,0.24,0.904,0.352,1.36c0.184,0.712,0.32,1.448,0.56,2.136H160z
			 M200,160c0,4.418-3.582,8-8,8c-4.418,0-8-3.582-8-8v-24c0-4.418,3.582-8,8-8c4.418,0,8,3.582,8,8V160z M232,160
			c0,4.418-3.582,8-8,8c-4.418,0-8-3.582-8-8v-24c0-4.418,3.582-8,8-8c4.418,0,8,3.582,8,8V160z M280,136c0-4.418,3.582-8,8-8
			c4.418,0,8,3.582,8,8v24c0,4.418-3.582,8-8,8c-4.418,0-8-3.582-8-8V136z M248,136c0-4.418,3.582-8,8-8c4.418,0,8,3.582,8,8v24
			c0,4.418-3.582,8-8,8c-4.418,0-8-3.582-8-8V136z M344,192L344,192H240c0-0.08,0-0.144,0-0.224
			c-0.007-1.591-0.173-3.178-0.496-4.736c-0.048-0.216-0.152-0.416-0.2-0.64c-0.144-0.584-0.352-1.128-0.536-1.696
			c-0.338-1.025-0.747-2.024-1.224-2.992c-0.232-0.48-0.344-1.024-0.608-1.488c0.091-0.062,0.179-0.129,0.264-0.2
			c0.368-0.24,0.688-0.528,1.04-0.8c0.6-0.448,1.232-0.864,1.792-1.368c0.464,0.416,1,0.744,1.496,1.12
			c0.496,0.376,0.984,0.8,1.52,1.136c0.755,0.466,1.535,0.891,2.336,1.272c0.544,0.264,1.056,0.576,1.6,0.8
			c0.934,0.358,1.891,0.655,2.864,0.888c0.504,0.136,0.976,0.328,1.496,0.432c3.077,0.629,6.25,0.629,9.328,0
			c0.52-0.104,0.992-0.296,1.496-0.432c0.973-0.233,1.93-0.53,2.864-0.888c0.568-0.232,1.08-0.544,1.6-0.8
			c0.804-0.381,1.586-0.806,2.344-1.272c0.528-0.352,1.008-0.752,1.512-1.136c0.504-0.384,1.032-0.704,1.496-1.12
			c0.464,0.416,1,0.744,1.496,1.12c0.496,0.376,0.984,0.8,1.52,1.136c0.755,0.466,1.535,0.891,2.336,1.272
			c0.544,0.264,1.056,0.576,1.6,0.8c0.934,0.358,1.891,0.655,2.864,0.888c0.504,0.136,0.976,0.328,1.496,0.432
			c12.955,2.633,25.591-5.734,28.224-18.688c0.322-1.585,0.483-3.198,0.48-4.816h32V192z M392,256c0,8.837-7.163,16-16,16
			c-8.837,0-16-7.163-16-16V96c0-8.837,7.163-16,16-16c8.837,0,16,7.163,16,16V256z M432,220c0,6.627-5.373,12-12,12
			s-12-5.373-12-12v-88c0-6.627,5.373-12,12-12s12,5.373,12,12V220z M464,192h-16v-32h16V192z"/>
	</g>
</g>
<g>
</g>
<g>
</g>
<g>
</g>
<g>
</g>
<g>
</g>
<g>
</g>
<g>
</g>
<g>
</g>
<g>
</g>
<g>
</g>
<g>
</g>
<g>
</g>
<g>
</g>
<g>
</g>
<g>
</g>
</svg> -->

<svg viewBox="-2 0 512 512.0009" xmlns="http://www.w3.org/2000/svg"  fill="white"><path d="m485.304688 303.042969c-19.011719-25.011719-47.78125-37.691407-85.507813-37.691407-43.683594 0-84.324219 19.613282-111.433594 53.136719-18.296875-10.097656-38.757812-15.375-59.984375-15.375-24 0-47.542968 7.003907-67.566406 19.925781 2.234375-41.367187.574219-107.121093-23.71875-166.148437 6.914062-7.445313 21.039062-18.550781 40.535156-13.3125 15.84375 4.257813 32.660156-.65625 43.886719-12.820313 22.417969-24.28125 29.046875-52.699218 18.664063-80.019531-16.464844-43.320312-45.980469-50.375-62.109376-50.722656-21.222656-.445313-45.257812 9.5-67.699218 28.042969-19.859375 16.414062-36.347656 37.664062-45.230469 58.308594-13.679687 31.785156-32.714844 115.757812-45.511719 184.878906-10.050781 54.289062-25.652344 149.507812-17.210937 177.238281 1.753906 5.761719 6.703125 9.980469 12.675781 10.792969.492188.066406 50.316406 7.082031 113.558594 35.316406 24.378906 10.882812 72.550781 17.40625 125 17.40625 8.902344 0 17.933594-.1875 26.984375-.574219 43.691406-1.863281 124.910156-10.132812 177.960937-44.546875 32.757813-21.246094 50.074219-50.019531 50.074219-83.199218 0-32.648438-8.082031-60.53125-23.367187-80.636719zm-43.496094 137.953125c-81.121094 52.621094-256.9375 44.910156-300.578125 25.425781-49.523438-22.109375-91.074219-31.949219-110.410157-35.714844-.894531-21.554687 4.339844-73.886719 19.144532-153.84375 14.53125-78.496093 32.832031-153.480469 43.511718-178.300781 13.589844-31.566406 52.652344-67.714844 83.105469-67.714844.273438 0 .550781.003906.820313.011719 5.542968.117187 22.402344.484375 33.9375 30.839844 6.179687 16.261719 1.976562 32.457031-12.492188 48.132812-3.371094 3.648438-8.554687 5.203125-13.214844 3.949219-40-10.75-69.445312 16.660156-79.429687 32.652344-2.738281 4.390625-3.09375 9.859375-.949219 14.566406 35.300782 77.425781 24.179688 175.273438 21.492188 194.722656-9.53125 13.464844-16.378906 28.769532-19.953125 44.953125-1.835938 8.320313 3.417969 16.554688 11.738281 18.390625 8.320312 1.832032 16.550781-3.417968 18.386719-11.738281 9.386719-42.511719 47.851562-73.363281 91.460937-73.363281 19.875 0 38.859375 6.148437 54.898438 17.777344.078125.054687.160156.097656.238281.152343.078125.054688.152344.121094.234375.175781 10.703125 7.164063 24.542969 24.703126 28.96875 30.851563 3.011719 4.195313 7.742188 6.425781 12.539062 6.425781 3.117188 0 6.261719-.9375 8.988282-2.894531 6.917968-4.972656 8.5-14.609375 3.527344-21.53125-1.476563-2.058594-11.929688-16.398437-24.398438-28.269531 21.277344-25.542969 52.691406-40.449219 86.421875-40.449219 64.484375 0 78.023437 47.570313 78.023437 87.476563 0 22.851562-11.78125 41.597656-36.011718 57.316406zm0 0"/></svg>