<svg viewBox="0 0 512.0009 512" xmlns="http://www.w3.org/2000/svg" fill="white"><path d="m369.589844 85.828125c-3.898438-3.910156-10.230469-3.910156-14.140625 0-3.902344 3.902344-3.902344 10.234375 0 14.144531.109375.109375.230469.21875.339843.328125 3.929688 3.582031 10.011719 3.472657 13.800782-.328125 3.722656-3.722656 3.902344-9.640625.53125-13.5625-.160156-.199218-.339844-.390625-.53125-.582031zm0 0"/><path d="m482.753906 29.25c-39-39-102.449218-39-141.449218 0l-78.234376 78.230469c-28.222656 28.226562-36.804687 70.527343-22.390624 107.265625l-25.929688 25.933594c-36.742188-14.414063-79.042969-5.832032-107.265625 22.390624l-78.238281 78.234376c-38.996094 38.996093-38.996094 102.449218 0 141.449218 39 38.996094 102.449218 38.996094 141.449218 0l78.234376-78.234375c28.226562-28.226562 36.804687-70.527343 22.390624-107.265625l25.929688-25.929687c37.035156 14.527343 79.25 5.625 107.265625-22.394531l78.238281-78.234376c38.996094-38.996093 38.996094-102.449218 0-141.445312zm-247.96875 361.125-78.234375 78.230469c-31.269531 31.273437-81.882812 31.277343-113.15625 0-31.273437-31.269531-31.277343-81.878907 0-113.15625l78.234375-78.234375c20.425782-20.429688 50.070313-27.988282 77.296875-20.710938l-27.8125 27.8125c-10.675781 1.519532-20.597656 6.441406-28.273437 14.121094l-78.222656 78.230469c-19.523438 19.511719-19.527344 51.203125-.003907 70.714843 19.511719 19.523438 51.203125 19.53125 70.71875.003907l78.234375-78.222657c7.675782-7.679687 12.601563-17.601562 14.117188-28.273437l27.816406-27.8125c7.273438 27.226563-.285156 56.867187-20.714844 77.296875zm-77.796875-35.371094c8.027344 8.035156 19.019531 12.355469 30.820313 11.625l-66.625 66.613282c-11.695313 11.703124-30.722656 11.707031-42.425782-.003907-11.699218-11.691406-11.707031-30.71875.003907-42.421875l66.613281-66.625c-.738281 11.886719 3.648438 22.855469 11.613281 30.8125zm54.054688-25.761718-11.625 11.621093c-7.78125 7.785157-20.464844 7.824219-28.285157-.003906-7.800781-7.789063-7.800781-20.476563.003907-28.277344l141.445312-141.445312c7.78125-7.78125 20.464844-7.824219 28.285157.003906 7.800781 7.792969 7.800781 20.476563-.003907 28.277344zm179.332031-94.457032c-20.429688 20.425782-50.070312 27.988282-77.296875 20.710938l27.8125-27.8125c10.667969-1.515625 20.585937-6.4375 28.261719-14.109375.003906-.003907.007812-.007813.007812-.011719l78.222656-78.230469c19.519532-19.507812 19.53125-51.199219.003907-70.714843-16.128907-16.140626-41.125-19.3125-60.785157-7.714844-4.757812 2.804687-6.335937 8.9375-3.53125 13.695312 2.808594 4.757813 8.941407 6.339844 13.695313 3.535156 11.796875-6.960937 26.796875-5.058593 36.476563 4.628907 11.703124 11.695312 11.707031 30.722656 0 42.425781l-66.613282 66.621094c.734375-11.882813-3.648437-22.851563-11.617187-30.8125-7.542969-7.550782-17.585938-11.710938-28.285157-11.710938-.847656 0-1.691406.039063-2.53125.089844l17.113282-17.113281c3.90625-3.90625 3.90625-10.238281 0-14.144531s-10.238282-3.90625-14.144532 0l-28.726562 28.722656c-7.679688 7.679687-12.601562 17.601562-14.121094 28.273437l-27.8125 27.8125c-7.277344-27.226562.285156-56.871093 20.710938-77.296875l78.234375-78.234375c31.269531-31.269531 81.882812-31.277343 113.160156 0 31.269531 31.273438 31.273437 81.882813 0 113.160157zm0 0"/><path d="m164.066406 164.0625c3.902344-3.902344 3.902344-10.238281 0-14.144531l-42.4375-42.4375c-3.90625-3.90625-10.242187-3.90625-14.148437 0s-3.90625 10.238281 0 14.144531l42.4375 42.4375c3.90625 3.90625 10.242187 3.910156 14.148437 0zm0 0"/><path d="m53.335938 206.992188c0 5.523437 4.476562 10 10 10h60.011718c5.523438 0 10-4.476563 10-10 0-5.523438-4.476562-10.003907-10-10.003907h-60.011718c-5.523438 0-10 4.480469-10 10.003907zm0 0"/><path d="m216.992188 123.347656v-60.011718c0-5.523438-4.476563-10.003907-10-10.003907-5.523438 0-10.003907 4.480469-10.003907 10.003907v60.011718c0 5.523438 4.480469 10 10.003907 10 5.523437 0 10-4.476562 10-10zm0 0"/><path d="m347.9375 347.933594c-3.90625 3.90625-3.90625 10.242187 0 14.148437l42.4375 42.4375c3.90625 3.90625 10.238281 3.90625 14.144531 0s3.90625-10.238281 0-14.144531l-42.4375-42.441406c-3.90625-3.902344-10.242187-3.902344-14.144531 0zm0 0"/><path d="m296.007812 388.652344v60.011718c0 5.523438 4.476563 10.003907 10 10.003907 5.527344 0 10.003907-4.480469 10.003907-10.003907v-60.011718c0-5.523438-4.476563-10-10.003907-10-5.523437 0-10 4.476562-10 10zm0 0"/><path d="m458.667969 306.007812c0-5.523437-4.480469-10-10.003907-10h-60.007812c-5.527344 0-10.003906 4.476563-10.003906 10 0 5.523438 4.476562 10.003907 10.003906 10.003907h60.007812c5.523438 0 10.003907-4.480469 10.003907-10.003907zm0 0"/></svg>