<svg id="LOGO_HORIZONTAL" xmlns="http://www.w3.org/2000/svg" width="1261" height="295" viewBox="0 0 1261 295">
  <defs>
    <style>
      .cls-1 {
        fill: #3c3c7c;
      }

      .cls-2, .cls-4, .cls-5 {
        fill: #fff;
      }

      .cls-2 {
        fill-rule: evenodd;
      }

      .cls-3 {
        opacity: 0.6;
      }

      .cls-5 {
        fill-opacity: 0;
        stroke: #fff;
        stroke-linejoin: round;
        stroke-opacity: 0.92;
        stroke-width: 1px;
      }
    </style>
  </defs>
  <rect id="background" class="cls-1" x="-176" y="-257" width="1619" height="823"/>
  <g id="text">
    <path id="coders" class="cls-2" d="M357.537,169.448a7.62,7.62,0,0,0-1.67,1.06,26.558,26.558,0,0,1-3.823,2.795,20.954,20.954,0,0,1-3.983,1.831,22.238,22.238,0,0,1-4.529,1,46.318,46.318,0,0,1-5.4.289,23.524,23.524,0,0,1-9.637-1.992,22.615,22.615,0,0,1-7.87-5.814A28.077,28.077,0,0,1,315.3,159.2a38.523,38.523,0,0,1-1.959-12.785,36.909,36.909,0,0,1,1.959-12.4,27.7,27.7,0,0,1,5.461-9.412,23.655,23.655,0,0,1,8.384-5.974,27.167,27.167,0,0,1,10.793-2.088,30.233,30.233,0,0,1,5.943.514,27.169,27.169,0,0,1,4.432,1.252,19.592,19.592,0,0,1,3.277,1.606q1.38,0.868,2.538,1.607a23.879,23.879,0,0,0,2.184,1.252,4.8,4.8,0,0,0,2.184.514,4.341,4.341,0,0,0,2.7-.739,9.241,9.241,0,0,0,1.671-1.638l7.324-9.829a36.008,36.008,0,0,0-6.039-5.043,40.988,40.988,0,0,0-7.453-3.919,48.446,48.446,0,0,0-8.7-2.57,50.623,50.623,0,0,0-9.926-.932,53.856,53.856,0,0,0-19.851,3.534,45.345,45.345,0,0,0-15.451,9.893,44.889,44.889,0,0,0-10.054,15.13,50.193,50.193,0,0,0-3.6,19.241,55.978,55.978,0,0,0,3.148,19.049,44.13,44.13,0,0,0,9.026,15.162,41.339,41.339,0,0,0,14.327,10.022,47.974,47.974,0,0,0,19.113,3.63q11.627,0,20.14-3.759a35.727,35.727,0,0,0,14.166-11.146l-8.608-9.059a4.2,4.2,0,0,0-1.478-1A4.308,4.308,0,0,0,357.537,169.448Zm109.055-41.855a45.171,45.171,0,0,0-9.862-15.162,45.891,45.891,0,0,0-15.322-10.119,51.723,51.723,0,0,0-19.884-3.694,52.356,52.356,0,0,0-19.916,3.662,45.748,45.748,0,0,0-15.386,10.087,44.925,44.925,0,0,0-9.894,15.161,52.7,52.7,0,0,0,0,37.776,44.685,44.685,0,0,0,25.28,25.313,55.9,55.9,0,0,0,39.8,0A44.645,44.645,0,0,0,466.592,165.3,52.526,52.526,0,0,0,466.592,127.593Zm-20.526,31.383a26.47,26.47,0,0,1-5.172,9.412,21.986,21.986,0,0,1-8.255,5.878,28.8,28.8,0,0,1-11.115,2.024,29.209,29.209,0,0,1-11.21-2.024,21.931,21.931,0,0,1-8.288-5.878,26.47,26.47,0,0,1-5.172-9.412,44.541,44.541,0,0,1,0-25.055,26.479,26.479,0,0,1,5.172-9.412,22.263,22.263,0,0,1,8.288-5.911,28.832,28.832,0,0,1,11.21-2.055,28.431,28.431,0,0,1,11.115,2.055,22.321,22.321,0,0,1,8.255,5.911,26.479,26.479,0,0,1,5.172,9.412A44.517,44.517,0,0,1,446.066,158.976Zm112.651-31.223a43.494,43.494,0,0,0-9.861-14.808,45.383,45.383,0,0,0-15.323-9.765,53.791,53.791,0,0,0-19.883-3.534H477.287v93.6H513.65a54.2,54.2,0,0,0,19.883-3.5,44.706,44.706,0,0,0,15.323-9.765,43.832,43.832,0,0,0,9.861-14.84A51.654,51.654,0,0,0,558.717,127.753Zm-20.526,31.255a26.737,26.737,0,0,1-5.172,9.476,22.442,22.442,0,0,1-8.255,5.975,28.031,28.031,0,0,1-11.114,2.088H499.13v-60.2h14.52a28.049,28.049,0,0,1,11.114,2.088,22.464,22.464,0,0,1,8.255,5.975,26.745,26.745,0,0,1,5.172,9.476A44.741,44.741,0,0,1,538.191,159.008Zm31.222-59.362v93.6h60.261v-16.7H591.256V154.254H620.68V138.193H591.256V116.35h38.418v-16.7H569.413Zm96.622,58.977a8.066,8.066,0,0,1,3.887.771,6.558,6.558,0,0,1,2.409,2.57l15.547,27.175q2.376,4.113,7.838,4.112h19.659l-19.916-32.572a16.065,16.065,0,0,0-3.309-3.919,20.5,20.5,0,0,0-4.079-2.7,31.41,31.41,0,0,0,8.063-4.432,28.083,28.083,0,0,0,5.91-6.136,26.061,26.061,0,0,0,3.63-7.484A29.69,29.69,0,0,0,706.9,127.4a29.171,29.171,0,0,0-2.056-11.05,22.026,22.026,0,0,0-6.585-8.8,32.535,32.535,0,0,0-11.693-5.814,62.532,62.532,0,0,0-17.314-2.088H638.795v93.6H660.51V158.623h5.525ZM660.51,115.9h8.737q8.416,0,12.432,3.469t4.015,9.637a17.864,17.864,0,0,1-.9,5.75,11.859,11.859,0,0,1-2.891,4.658,13.632,13.632,0,0,1-5.107,3.116,22.356,22.356,0,0,1-7.549,1.124H660.51V115.9Zm118.081-7.324a31.586,31.586,0,0,0-5.686-4.144,42.663,42.663,0,0,0-6.842-3.148,44.164,44.164,0,0,0-7.741-1.991,51.333,51.333,0,0,0-8.384-.675,37.262,37.262,0,0,0-13.684,2.345,30.657,30.657,0,0,0-10.087,6.264,26.546,26.546,0,0,0-6.232,8.93,26.154,26.154,0,0,0-2.12,10.279,29.591,29.591,0,0,0,1.8,11.018,22.533,22.533,0,0,0,4.722,7.453,24.14,24.14,0,0,0,6.65,4.818,55.787,55.787,0,0,0,7.645,3.084q3.918,1.253,7.645,2.28a43.678,43.678,0,0,1,6.649,2.377,13.908,13.908,0,0,1,4.722,3.405,7.807,7.807,0,0,1,1.8,5.333q0,5.654-3.277,8.255t-9.187,2.6a21.282,21.282,0,0,1-7.58-1.221,35.829,35.829,0,0,1-5.686-2.7q-2.473-1.477-4.433-2.7a7.323,7.323,0,0,0-3.887-1.221,5.638,5.638,0,0,0-2.762.707,5.225,5.225,0,0,0-1.992,1.863l-6.424,10.151a33.811,33.811,0,0,0,6.488,5.011,50.924,50.924,0,0,0,7.967,3.887,52.812,52.812,0,0,0,8.769,2.537,45.584,45.584,0,0,0,8.9.9,39.4,39.4,0,0,0,14.23-2.41,30.262,30.262,0,0,0,10.536-6.617,28.431,28.431,0,0,0,6.521-9.861,32.553,32.553,0,0,0,2.249-12.143,25.041,25.041,0,0,0-1.8-9.99,22.212,22.212,0,0,0-4.722-7.034,25.6,25.6,0,0,0-6.682-4.754A68.894,68.894,0,0,0,759,138.225q-3.919-1.38-7.677-2.5a50.387,50.387,0,0,1-6.681-2.474,15.453,15.453,0,0,1-4.722-3.212,6.477,6.477,0,0,1-1.8-4.69,8.852,8.852,0,0,1,2.987-7.035q2.988-2.6,9.091-2.6a19.7,19.7,0,0,1,6.3.932,32.006,32.006,0,0,1,4.914,2.088q2.153,1.156,3.855,2.088a6.672,6.672,0,0,0,3.18.931,4.532,4.532,0,0,0,2.731-.771,8.139,8.139,0,0,0,2.023-2.312Z"/>
    <path id="_.guide" data-name=".guide" class="cls-2" d="M786.873,189.364a8.163,8.163,0,0,0,1.671,2.538,7.436,7.436,0,0,0,2.537,1.7,8.428,8.428,0,0,0,6.3,0,7.8,7.8,0,0,0,2.57-1.7,7.914,7.914,0,0,0,1.7-2.538,8.51,8.51,0,0,0,0-6.328,7.839,7.839,0,0,0-1.7-2.57,8.268,8.268,0,0,0-2.57-1.735,7.973,7.973,0,0,0-8.833,1.735,8.082,8.082,0,0,0-1.671,2.57A8.51,8.51,0,0,0,786.873,189.364Zm52.776-7.677a30.07,30.07,0,0,1-10.664-7.26,32.87,32.87,0,0,1-6.971-11.6,45.646,45.646,0,0,1-2.473-15.579,44.925,44.925,0,0,1,2.377-15.066,32.112,32.112,0,0,1,6.81-11.435,29.752,29.752,0,0,1,10.728-7.26,37.347,37.347,0,0,1,14.07-2.538,44.467,44.467,0,0,1,9.219.835,39.2,39.2,0,0,1,6.746,2.024,30.878,30.878,0,0,1,4.85,2.474q1.99,1.285,3.6,2.184a4.542,4.542,0,0,0,2.249.707,3.251,3.251,0,0,0,2.826-1.735l3.534-5.654a45.521,45.521,0,0,0-6.36-4.85,40.7,40.7,0,0,0-7.421-3.662,47.556,47.556,0,0,0-8.705-2.313,60.272,60.272,0,0,0-10.151-.8,53.163,53.163,0,0,0-19.5,3.405,41.3,41.3,0,0,0-24.284,24.477,53.48,53.48,0,0,0-3.309,19.21,52.209,52.209,0,0,0,3.373,19.08,43.743,43.743,0,0,0,9.412,14.873A42.272,42.272,0,0,0,834,190.842a47.832,47.832,0,0,0,18.374,3.437,85.693,85.693,0,0,0,10.6-.611,58.228,58.228,0,0,0,9.155-1.863,49.107,49.107,0,0,0,8.03-3.116,51,51,0,0,0,7.228-4.368V148.986H859.115v7.067a2.3,2.3,0,0,0,.739,1.735,2.715,2.715,0,0,0,1.96.706h14.262v20.3q-2.442,1.286-4.883,2.28a39.908,39.908,0,0,1-5.2,1.7,43.278,43.278,0,0,1-5.878,1.06,60.92,60.92,0,0,1-6.842.353A35.872,35.872,0,0,1,839.649,181.687Zm89.2-.289a21.7,21.7,0,0,1-7.645-5.429,23.585,23.585,0,0,1-4.754-8.288,32.756,32.756,0,0,1-1.638-10.6V101.188h-12.4v55.957a41.988,41.988,0,0,0,2.538,14.777,34.045,34.045,0,0,0,7.292,11.788,33.508,33.508,0,0,0,11.564,7.806,42.762,42.762,0,0,0,30.58,0,33.179,33.179,0,0,0,11.532-7.806,34.333,34.333,0,0,0,7.26-11.788,42.011,42.011,0,0,0,2.538-14.777V101.188h-12.4v55.957a32.767,32.767,0,0,1-1.638,10.6,23.6,23.6,0,0,1-4.754,8.287,21.44,21.44,0,0,1-7.613,5.4A27.908,27.908,0,0,1,928.852,181.4Zm79.828-80.21H996.212v92.063h12.468V101.188Zm97.97,27.24a42.212,42.212,0,0,0-9.25-14.552,41.086,41.086,0,0,0-14.33-9.379,49.845,49.845,0,0,0-18.5-3.309h-34.44v92.063h34.44a49.825,49.825,0,0,0,18.5-3.309,41.292,41.292,0,0,0,14.33-9.347,41.869,41.869,0,0,0,9.25-14.52A55.813,55.813,0,0,0,1106.65,128.428Zm-11.82,33.985a31.689,31.689,0,0,1-6.56,11.275,28.03,28.03,0,0,1-10.28,7.035,35.476,35.476,0,0,1-13.42,2.441h-21.91V111.275h21.91a35.5,35.5,0,0,1,13.42,2.441,27.865,27.865,0,0,1,10.28,7.067,32.036,32.036,0,0,1,6.56,11.307A50.911,50.911,0,0,1,1094.83,162.413Zm28.84-61.225v92.063h56.73V183.1h-44.2V151.684h35.78v-9.765H1136.2v-30.58h44.2V101.188h-56.73Z"/>
  </g>
  <g id="signet" class="cls-3">
    <path id="marker_bottom" data-name="marker bottom" class="cls-2" d="M206.1,240s29.929-24.685,29.929-53.872c0-38.083-59.858-38.393-59.858,0C176.173,215.864,206.1,240,206.1,240Zm6.966-65.384-7.209.009a11.735,11.735,0,1,1-11.734,11.734A11.735,11.735,0,0,1,205.859,174.625Z"/>
    <path id="marker_mid" data-name="marker mid" class="cls-2" d="M85.925,184.746s29.929-24.685,29.929-53.872c0-38.083-59.858-38.392-59.858,0C56,160.611,85.925,184.746,85.925,184.746Zm6.966-65.383-7.22.012a11.735,11.735,0,1,1-11.734,11.734A11.734,11.734,0,0,1,85.672,119.375Z"/>
    <path id="marker_top" data-name="marker top" class="cls-2" d="M168.806,142.385s29.929-24.685,29.929-53.872c0-38.083-59.858-38.392-59.858,0C138.877,118.249,168.806,142.385,168.806,142.385ZM175.772,77m-7.194,0a11.75,11.75,0,1,1-11.766,11.75A11.758,11.758,0,0,1,168.578,77Z"/>
    <g id="dots_top">
      <circle id="Elipsa_2" data-name="Elipsa 2" class="cls-4" cx="145.687" cy="148.375" r="4.625"/>
      <circle id="Elipsa_2_kopia" data-name="Elipsa 2 kopia" class="cls-4" cx="127.719" cy="156.188" r="4.594"/>
    </g>
    <g id="dots_bottom">
      <ellipse id="Elipsa_2_kopia_3" data-name="Elipsa 2 kopia 3" class="cls-4" cx="148.547" cy="206" rx="4.609" ry="4.594"/>
      <circle id="Elipsa_2_kopia_3-2" data-name="Elipsa 2 kopia 3" class="cls-4" cx="130.594" cy="198.172" r="4.594"/>
      <circle id="Elipsa_2_kopia_3-3" data-name="Elipsa 2 kopia 3" class="cls-4" cx="112.656" cy="190.813" r="4.594"/>
      <ellipse id="Elipsa_2_kopia_4" data-name="Elipsa 2 kopia 4" class="cls-4" cx="166.516" cy="213.375" rx="4.609" ry="4.594"/>
    </g>
  </g>
  <!-- <rect id="outline_kopia" data-name="outline kopia" class="cls-5" width="1261" height="295"/> -->
</svg>
