<?xml version="1.0" encoding="utf-8"?>
<!DOCTYPE svg PUBLIC "-//W3C//DTD SVG 1.1//EN" "http://www.w3.org/Graphics/SVG/1.1/DTD/svg11.dtd">
<svg version="1.1" xmlns="http://www.w3.org/2000/svg" xmlns:xlink="http://www.w3.org/1999/xlink" x="0px" y="0px" viewBox="0 0 1000 1000" enable-background="new 0 0 1000 1000" xml:space="preserve" fill="white">
<g><path d="M500,10C229.4,10,10,229.4,10,500s219.4,490,490,490s490-219.4,490-490S770.6,10,500,10z M855.5,531.3c-5.8,8.2-12.6,17.6-20.3,28.4c-7.8,10.7-16,21.7-24.7,32.9c-8.7,11.2-17.1,21.6-25.2,31.2c-10.1,12.2-20,18.9-29.8,20.1c-5.2,0.6-10.9-1.1-17.1-5.4c-6.2-4.2-12-9.6-17.4-16.2c-8.2-9.9-17.3-20.8-27.2-32.7c-9.9-11.9-19.2-23.4-27.9-34.6c-8.7-11.2-16.2-21.2-22.6-30c-6.4-8.8-10.3-14.7-11.6-17.5c-4-7.8-3.7-14,0.7-18.5c4.4-4.5,9.6-6.8,15.5-6.9c1.7,0.1,7.5,0.1,17.4-0.2c9.9-0.2,22-0.4,36.2-0.5c-1.7-29.6-9.3-57.8-22.7-84.5c-13.4-26.7-32.7-49.8-57.6-69.2c-23.1-18-48.2-30.6-75.1-37.7c-26.9-7.1-53.8-9-80.5-5.7c-26.8,3.3-52.3,11.7-76.7,25.1c-24.4,13.4-45.5,31.7-63.5,54.8C307.5,387,295,411.8,288,438.7c-7.1,26.9-9,53.7-5.6,80.5c3.3,26.8,11.7,52.3,25.2,76.7c13.5,24.4,31.8,45.5,54.9,63.6c19.1,14.9,39.5,26,61.3,33.2c21.8,7.3,44,10.9,66.8,10.9c16.1,0,31.8-2.4,47.3-5.9l0,0.2c12.5-3.9,26.5-3.2,39.2,3.2c25.6,13,35.8,44.3,22.8,70c-8,15.7-22.8,25.5-38.9,27.8l0,0.1c-24.3,5.5-48.9,8.1-73.7,7.7c-32.9-0.6-65.4-6.4-97.6-17.3c-32.2-10.9-62.3-27.3-90.2-49c-34.1-26.6-61.3-58.1-81.4-94.4c-20.1-36.3-32.6-74.3-37.3-114c-4.8-39.7-2-79.6,8.2-119.6c10.3-40,28.7-77.1,55.3-111.2c26.6-34.1,58.1-61.1,94.6-81c36.5-19.9,74.5-32.3,114-37.2s79.4-2.1,119.6,8.4c40.3,10.4,77.5,29,111.6,55.6c37.8,29.5,66.8,64.6,87,105.4c20.2,40.8,31.2,83.4,33.1,127.9c13.3,0.3,24.6,0.4,33.8,0.3c9.3-0.1,15.1-0.2,17.4-0.2c3.6-0.1,7.1,0.4,10.4,1.5c3.3,1.1,5.7,3,7.2,5.6c1.5,2.6,1.9,6.1,1.3,10.3c-0.6,4.2-2.9,9.5-6.7,16C865.3,517.3,861.3,523.1,855.5,531.3z"/></g>
</svg>
