<!-- <svg id="Layer_1" enable-background="new 0 0 512 512" height="512" viewBox="0 0 512 512" width="512" xmlns="http://www.w3.org/2000/svg" fill="white"><path d="m467.55 256 41.45-55.267c3.409-4.545 3.958-10.626 1.417-15.708s-7.735-8.292-13.417-8.292h-80.333c-4.721 0-9.167 2.223-12 6l-1.588 2.118c-29.453-80.758-107.163-136.651-195.279-136.651-114.581 0-207.8 93.219-207.8 207.8s93.219 207.8 207.8 207.8c88.116 0 165.826-55.893 195.279-136.651l1.588 2.118c2.833 3.777 7.279 6 12 6h80.333c5.682 0 10.875-3.21 13.417-8.292 2.541-5.082 1.992-11.163-1.417-15.708zm-86.797 41.383c-18.946 79.436-90.645 136.417-172.953 136.417-98.039 0-177.8-79.761-177.8-177.8s79.761-177.8 177.8-177.8c82.308 0 154.007 56.981 172.954 136.417l-16.184 21.58-3.603 4.803h-10.415c-7.524-72.121-68.672-128.533-142.752-128.533-79.145 0-143.533 64.389-143.533 143.533s64.388 143.533 143.533 143.533c74.079 0 135.228-56.412 142.752-128.533h10.415l3.603 4.803zm-95.128-56.383c-7.033-36.557-39.246-64.267-77.825-64.267-43.708 0-79.267 35.559-79.267 79.267s35.559 79.267 79.267 79.267c38.579 0 70.792-27.709 77.825-64.267h34.716c-7.363 55.538-55.023 98.533-112.541 98.533-62.603 0-113.533-50.931-113.533-113.533s50.93-113.533 113.533-113.533c57.518 0 105.178 42.995 112.541 98.533zm-77.825 30h46.924c-6.361 19.852-24.988 34.267-46.924 34.267-27.166 0-49.267-22.101-49.267-49.267s22.101-49.267 49.267-49.267c21.937 0 40.563 14.415 46.924 34.267h-46.924c-8.284 0-15 6.716-15 15s6.716 15 15 15zm229-6 30.2 40.267h-42.833l-36.95-49.267 36.95-49.267h42.833l-30.2 40.267c-4 5.334-4 12.667 0 18z"/></svg> -->
<svg id="regular" enable-background="new 0 0 24 24" height="512" viewBox="0 0 24 24" width="512" xmlns="http://www.w3.org/2000/svg"  fill="white"><g><path d="m10 24c-5.514 0-10-4.486-10-10s4.486-10 10-10 10 4.486 10 10-4.486 10-10 10zm0-18.5c-4.687 0-8.5 3.813-8.5 8.5s3.813 8.5 8.5 8.5 8.5-3.813 8.5-8.5-3.813-8.5-8.5-8.5z"/></g><g><path d="m10 20.5c-3.584 0-6.5-2.916-6.5-6.5s2.916-6.5 6.5-6.5 6.5 2.916 6.5 6.5-2.916 6.5-6.5 6.5zm0-11.5c-2.757 0-5 2.243-5 5s2.243 5 5 5 5-2.243 5-5-2.243-5-5-5z"/></g><g><path d="m10 17c-1.654 0-3-1.346-3-3s1.346-3 3-3 3 1.346 3 3-1.346 3-3 3zm0-4.5c-.827 0-1.5.673-1.5 1.5s.673 1.5 1.5 1.5 1.5-.673 1.5-1.5-.673-1.5-1.5-1.5z"/></g><g><path d="m10 14.75c-.192 0-.384-.073-.53-.22-.293-.293-.293-.768 0-1.061l7.5-7.5c.293-.293.768-.293 1.061 0s.293.768 0 1.061l-7.5 7.5c-.147.147-.339.22-.531.22z"/></g><g><path d="m20.25 7h-2.5c-.414 0-.75-.336-.75-.75v-2.5c0-.199.079-.39.22-.53l3-3c.215-.215.538-.278.817-.163.28.116.463.39.463.693v1.75h1.75c.303 0 .577.183.693.463s.052.603-.163.817l-3 3c-.14.141-.331.22-.53.22zm-1.75-1.5h1.439l1.5-1.5h-.689c-.414 0-.75-.336-.75-.75v-.689l-1.5 1.5z"/></g></svg>